<svg xmlns="http://www.w3.org/2000/svg" width="512" height="512" viewBox="0 0 512 512" version="1.1"><path d="M 241 90.576 C 237.975 91.371, 232.125 93.664, 228 95.673 C 218.848 100.129, 207.810 110.753, 203.763 119 C 198.095 130.549, 198 131.716, 198 190.074 C 198 222.174, 198.408 245.891, 199.015 249.114 C 202.841 269.413, 220.549 286.649, 242.627 291.560 C 252.211 293.693, 265.722 293.083, 275.141 290.094 L 281.783 287.987 298.566 295.485 C 307.797 299.609, 315.542 302.791, 315.777 302.556 C 316.013 302.321, 314.330 293.545, 312.038 283.054 L 307.871 263.980 310.685 257.240 L 313.500 250.500 313.796 193.705 C 314.052 144.670, 313.878 136.062, 312.519 130.705 C 310.022 120.856, 306.125 114.093, 298.519 106.412 C 290.843 98.662, 281.335 93.259, 270.540 90.515 C 263.116 88.628, 248.301 88.659, 241 90.576 M 220.679 143.654 C 220.306 144.028, 220 150.108, 220 157.167 L 220 170 256.029 170 L 292.058 170 291.779 156.750 L 291.500 143.500 256.429 143.237 C 237.140 143.093, 221.053 143.280, 220.679 143.654 M 220.221 204.250 L 220.500 217.500 256 217.500 L 291.500 217.500 291.779 204.250 L 292.058 191 256 191 L 219.942 191 220.221 204.250" stroke="none" fill="#ffffff" fill-rule="evenodd"/><path d="M 211.946 105.750 L 208.500 109.500 212.250 106.054 C 215.740 102.846, 216.460 102, 215.696 102 C 215.529 102, 213.842 103.688, 211.946 105.750 M 299 105.500 C 300.866 107.425, 302.617 109, 302.892 109 C 303.167 109, 301.866 107.425, 300 105.500 C 298.134 103.575, 296.383 102, 296.108 102 C 295.833 102, 297.134 103.575, 299 105.500 M 221.453 156.748 L 221.500 169.500 256 169.500 L 290.500 169.500 290.547 156.748 L 290.593 143.997 290.267 156.498 L 289.940 169 256 169 L 222.060 169 221.733 156.498 L 221.407 143.997 221.453 156.748 M 221.217 204.250 L 221.435 217.500 221.747 204.750 L 222.060 192 256 192 L 289.940 192 290.253 204.750 L 290.565 217.500 290.783 204.250 L 291 191 256 191 L 221 191 221.217 204.250 M 100.713 220.400 C 94.228 222.174, 89.068 226.510, 85.659 233.050 C 82.931 238.282, 82.840 238.904, 83.390 248.603 C 85.460 285.112, 101.004 322.174, 126.455 351.286 C 150.268 378.524, 185.433 398.935, 221.750 406.600 L 230 408.341 230 428.019 L 230 447.698 220.502 448.322 C 215.230 448.669, 209.714 449.614, 208.103 450.447 C 203.910 452.615, 198.133 459.774, 197.393 463.719 C 195.034 476.293, 201.849 486.735, 213.886 488.991 C 220.925 490.310, 291.075 490.310, 298.114 488.991 C 307.253 487.278, 313.960 480.473, 314.765 472.096 C 315.471 464.749, 314.392 460.818, 310.385 456.137 C 305.367 450.274, 302.377 449.037, 291.498 448.322 L 282 447.698 282 428.058 L 282 408.418 290.914 406.732 C 312.097 402.728, 338.786 391.231, 357 378.265 C 369.189 369.588, 388.603 350.170, 397.258 338 C 405.363 326.602, 416.743 304.066, 420.942 291.097 C 425.034 278.461, 427.999 262.746, 428.697 250 C 429.214 240.560, 429.044 238.969, 427.010 234.243 C 423.073 225.095, 414.919 219.712, 405 219.712 C 398.422 219.712, 392.701 221.950, 388.162 226.301 C 382.778 231.462, 380.923 236.180, 379.871 247.386 C 378.254 264.623, 374.577 277.790, 367.286 292.457 C 349.997 327.237, 318.080 351.471, 279.500 359.113 C 269.118 361.170, 242.655 360.908, 232.204 358.646 C 206.002 352.973, 187.029 342.467, 168 323.092 C 147.346 302.062, 136.122 278.925, 132.962 250.860 C 131.521 238.064, 129.751 232.841, 125.109 227.686 C 118.967 220.868, 109.423 218.017, 100.713 220.400" stroke="none" fill="#ff9400" fill-rule="evenodd"/><path d="M 251.750 88.732 C 254.088 88.943, 257.913 88.943, 260.250 88.732 C 262.587 88.522, 260.675 88.349, 256 88.349 C 251.325 88.349, 249.412 88.522, 251.750 88.732 M 235.500 91.464 C 231.638 93.232, 233.434 93.258, 238 91.500 C 239.925 90.759, 240.825 90.138, 240 90.121 C 239.175 90.104, 237.150 90.708, 235.500 91.464 M 274 91.500 C 278.566 93.258, 280.362 93.232, 276.500 91.464 C 274.850 90.708, 272.825 90.104, 272 90.121 C 271.175 90.138, 272.075 90.759, 274 91.500 M 224.310 96.635 C 220.930 98.634, 215.765 102.773, 212.832 105.833 L 207.500 111.395 214.031 105.448 C 217.624 102.176, 223.249 98.049, 226.531 96.277 C 229.814 94.504, 232.040 93.041, 231.477 93.027 C 230.915 93.012, 227.689 94.636, 224.310 96.635 M 285.469 96.171 C 288.751 98.002, 294.376 102.176, 297.969 105.448 L 304.500 111.395 299.232 105.898 C 294.251 100.700, 285.907 94.852, 281.500 93.470 C 280.400 93.125, 282.186 94.341, 285.469 96.171 M 200.116 125.098 C 199.502 126.858, 199.032 128.794, 199.070 129.399 C 199.109 130.005, 199.786 128.739, 200.574 126.587 C 201.363 124.435, 201.833 122.500, 201.620 122.286 C 201.406 122.073, 200.729 123.338, 200.116 125.098 M 310.157 122.500 C 310.154 123.050, 310.759 125.075, 311.500 127 C 312.241 128.925, 312.862 129.825, 312.879 129 C 312.896 128.175, 312.292 126.150, 311.536 124.500 C 310.781 122.850, 310.160 121.950, 310.157 122.500 M 197.466 191 C 197.466 220.425, 197.593 232.463, 197.749 217.750 C 197.905 203.037, 197.905 178.963, 197.749 164.250 C 197.593 149.537, 197.466 161.575, 197.466 191 M 314.466 191 C 314.466 220.425, 314.593 232.463, 314.749 217.750 C 314.905 203.037, 314.905 178.963, 314.749 164.250 C 314.593 149.537, 314.466 161.575, 314.466 191 M 220.679 143.654 C 219.747 144.586, 219.815 170, 220.750 170.002 C 221.162 170.003, 221.362 164.153, 221.194 157.002 L 220.889 144 256 144 L 291.111 144 290.806 157.002 C 290.638 164.153, 290.851 170.003, 291.279 170.002 C 291.707 170.001, 291.932 164.037, 291.779 156.750 L 291.500 143.500 256.429 143.237 C 237.140 143.093, 221.053 143.280, 220.679 143.654 M 220.455 204.249 L 220.500 217.500 256 217.500 L 291.500 217.500 291.547 204 L 291.594 190.500 291.268 203.750 L 290.942 217 256 217 L 221.058 217 220.734 203.999 L 220.409 190.997 220.455 204.249 M 201 258.373 C 201 259.453, 204.972 267, 205.541 267 C 205.816 267, 205.076 265.087, 203.897 262.750 C 201.579 258.153, 201 257.278, 201 258.373 M 309.046 260.889 C 308.373 262.513, 308.036 264.665, 308.295 265.671 C 308.666 267.106, 308.793 267.001, 308.884 265.184 C 308.948 263.911, 309.486 261.960, 310.081 260.849 C 310.676 259.738, 310.961 258.628, 310.716 258.382 C 310.470 258.137, 309.719 259.265, 309.046 260.889 M 207.057 269.500 C 209.344 272.927, 215.363 279.076, 218.500 281.189 C 220.188 282.327, 219.662 281.615, 217.295 279.560 C 214.983 277.552, 211.433 274.017, 209.407 271.705 C 207.380 269.392, 206.323 268.400, 207.057 269.500 M 290 292.500 C 291.375 293.286, 292.950 293.929, 293.500 293.929 C 294.050 293.929, 293.375 293.286, 292 292.500 C 290.625 291.714, 289.050 291.071, 288.500 291.071 C 287.950 291.071, 288.625 291.714, 290 292.500 M 252.750 293.723 C 254.537 293.945, 257.462 293.945, 259.250 293.723 C 261.038 293.502, 259.575 293.320, 256 293.320 C 252.425 293.320, 250.963 293.502, 252.750 293.723 M 299 296.500 C 300.375 297.286, 301.950 297.929, 302.500 297.929 C 303.050 297.929, 302.375 297.286, 301 296.500 C 299.625 295.714, 298.050 295.071, 297.500 295.071 C 296.950 295.071, 297.625 295.714, 299 296.500 M 308 300.500 C 309.375 301.286, 310.950 301.929, 311.500 301.929 C 312.050 301.929, 311.375 301.286, 310 300.500 C 308.625 299.714, 307.050 299.071, 306.500 299.071 C 305.950 299.071, 306.625 299.714, 308 300.500" stroke="none" fill="#fcfafa" fill-rule="evenodd"/><path d="M 243 37.970 C 195.319 44.150, 157.891 77.488, 148.828 121.849 C 147.043 130.590, 146.937 135.377, 147.234 194.354 C 147.599 266.920, 147.243 263.779, 157.439 284.500 C 175.646 321.507, 213.013 344.103, 256 344.103 C 298.987 344.103, 336.354 321.507, 354.561 284.500 C 364.757 263.779, 364.401 266.920, 364.766 194.354 C 365.063 135.377, 364.957 130.590, 363.172 121.849 C 354.882 81.271, 322.282 49.175, 279.977 39.942 C 269.801 37.721, 252.174 36.781, 243 37.970 M 240 89.526 C 221.742 94.532, 206.696 107.700, 199.856 124.660 L 197.500 130.500 197.500 190 C 197.500 245.992, 197.613 249.846, 199.422 255.361 C 205.192 272.959, 222.299 288.048, 241.624 292.585 C 250.873 294.756, 267.171 294.094, 275.500 291.208 L 281.500 289.129 299.404 297.077 C 309.251 301.449, 317.435 304.898, 317.590 304.743 C 317.745 304.588, 315.889 295.382, 313.465 284.284 C 309.186 264.697, 309.104 263.996, 310.667 260.304 C 314.868 250.376, 314.976 248.639, 314.988 190.960 C 315.001 130.062, 314.936 129.280, 308.958 118.081 C 304.603 109.925, 298.890 103.740, 290.571 98.176 C 279.528 90.790, 272.983 88.822, 258 88.384 C 248.980 88.120, 243.969 88.438, 240 89.526 M 222 156.500 L 222 169 256 169 L 290 169 290 156.500 L 290 144 256 144 L 222 144 222 156.500 M 222 204.500 L 222 217 256 217 L 290 217 290 204.500 L 290 192 256 192 L 222 192 222 204.500" stroke="none" fill="#fc5a04" fill-rule="evenodd"/></svg>