<?xml version="1.0" standalone="no"?>
<!DOCTYPE svg PUBLIC "-//W3C//DTD SVG 20010904//EN"
 "http://www.w3.org/TR/2001/REC-SVG-20010904/DTD/svg10.dtd">
<svg version="1.0" xmlns="http://www.w3.org/2000/svg"
 width="1024.000000pt" height="1024.000000pt" viewBox="0 0 1024.000000 1024.000000"
 preserveAspectRatio="xMidYMid meet">
<metadata>
Created by potrace 1.14, written by Peter Selinger 2001-2017
</metadata>
<g transform="translate(0.000000,1024.000000) scale(0.100000,-0.100000)"
fill="#000000" stroke="none">
<path d="M5037 9484 c-1 -1 -42 -5 -92 -8 -49 -4 -115 -10 -145 -16 -30 -5
-68 -11 -85 -14 -211 -35 -447 -117 -654 -227 -130 -69 -307 -189 -377 -254
-6 -5 -41 -37 -78 -70 -235 -209 -450 -537 -550 -841 -54 -164 -74 -239 -91
-354 -17 -115 -20 -312 -20 -1305 0 -1154 1 -1168 46 -1380 60 -285 217 -611
404 -842 149 -183 388 -392 560 -489 11 -6 36 -20 55 -32 242 -143 593 -254
885 -280 103 -9 370 -9 460 1 77 7 205 29 275 47 25 6 56 13 70 16 121 24 408
142 550 226 213 126 438 318 579 493 31 39 58 72 61 75 8 7 113 167 138 210
59 102 157 323 168 379 3 14 7 28 9 31 6 10 52 190 60 235 12 66 13 77 21 150
10 91 11 2232 1 2350 -6 77 -26 195 -52 310 -16 73 -90 276 -135 369 -147 305
-348 550 -637 776 -142 112 -404 250 -603 319 -66 23 -270 78 -318 85 -145 23
-144 23 -262 32 -87 6 -239 11 -243 8z"/>
<path d="M2000 5817 c-133 -44 -227 -127 -286 -252 -48 -100 -58 -169 -43
-284 4 -31 10 -84 13 -117 8 -88 25 -203 41 -284 21 -109 30 -148 55 -245 133
-513 415 -1036 769 -1429 141 -157 385 -378 531 -481 30 -22 57 -42 60 -45 10
-10 135 -92 196 -128 22 -12 55 -32 74 -44 68 -40 276 -145 355 -177 44 -18
94 -39 110 -47 115 -52 456 -149 635 -180 19 -3 42 -7 50 -9 8 -2 25 -4 38 -4
l22 -1 0 -413 0 -414 -153 -1 c-234 -1 -318 -28 -414 -130 -221 -234 -76 -633
242 -668 79 -8 1550 -8 1640 0 239 23 399 244 349 484 -16 80 -53 144 -118
204 -93 88 -163 108 -395 111 l-151 1 0 408 c0 459 -10 411 85 423 181 22 514
117 745 212 231 96 516 253 698 386 269 197 545 469 744 732 59 79 180 261
203 305 10 19 21 37 25 40 4 3 41 73 82 155 210 416 328 839 365 1300 14 181
7 240 -42 343 -44 94 -128 178 -220 222 -77 37 -87 39 -182 47 -252 19 -479
-175 -508 -434 -2 -21 -7 -78 -10 -128 -6 -93 -8 -113 -19 -180 -11 -70 -17
-99 -27 -145 -6 -25 -12 -52 -14 -61 -5 -22 -44 -155 -61 -208 -163 -492 -535
-973 -974 -1260 -219 -144 -513 -277 -715 -326 -114 -28 -198 -46 -235 -51
-25 -3 -47 -8 -50 -9 -3 -2 -34 -6 -70 -10 -36 -3 -83 -8 -105 -10 -47 -5
-347 -6 -390 -1 -16 2 -60 6 -97 10 -163 16 -407 76 -598 146 -240 88 -545
268 -744 439 -130 113 -350 355 -426 471 -8 12 -27 39 -41 59 -14 20 -28 43
-32 51 -4 8 -16 29 -27 45 -36 57 -139 262 -170 341 -63 158 -131 391 -145
498 -3 27 -8 52 -10 55 -2 4 -6 38 -10 76 -4 39 -9 84 -11 100 -2 17 -4 58 -5
93 -1 34 -5 62 -10 62 -5 0 -9 8 -9 18 0 26 -57 139 -94 186 -41 53 -134 120
-204 147 -84 32 -225 35 -312 6z"/>
</g>
</svg>
